<?xml version="1.0" encoding="UTF-8" standalone="no"?>
<!DOCTYPE svg PUBLIC "-//W3C//DTD SVG 1.1//EN"
 "http://www.w3.org/Graphics/SVG/1.1/DTD/svg11.dtd">
<!-- Generated by graphviz version 9.0.0 (20230911.1827)
 -->
<!-- Pages: 1 -->
<svg width="1710pt" height="476pt"
 viewBox="0.00 0.00 1709.88 476.00" xmlns="http://www.w3.org/2000/svg" xmlns:xlink="http://www.w3.org/1999/xlink">
<g id="graph0" class="graph" transform="scale(1 1) rotate(0) translate(4 472)">
<polygon fill="white" stroke="none" points="-4,4 -4,-472 1705.88,-472 1705.88,4 -4,4"/>
<!-- [root] aws_db_instance.default (expand) -->
<g id="node1" class="node">
<title>[root] aws_db_instance.default (expand)</title>
<polygon fill="none" stroke="black" points="463.71,-324 314.21,-324 314.21,-288 463.71,-288 463.71,-324"/>
<text text-anchor="middle" x="388.96" y="-300.95" font-family="Times,serif" font-size="14.00">aws_db_instance.default</text>
</g>
<!-- [root] provider[&quot;registry.terraform.io/hashicorp/aws&quot;] -->
<g id="node10" class="node">
<title>[root] provider[&quot;registry.terraform.io/hashicorp/aws&quot;]</title>
<polygon fill="none" stroke="black" points="694.96,-36 430.53,-18 694.96,0 959.39,-18 694.96,-36"/>
<text text-anchor="middle" x="694.96" y="-12.95" font-family="Times,serif" font-size="14.00">provider[&quot;registry.terraform.io/hashicorp/aws&quot;]</text>
</g>
<!-- [root] aws_db_instance.default (expand)&#45;&gt;[root] provider[&quot;registry.terraform.io/hashicorp/aws&quot;] -->
<g id="edge1" class="edge">
<title>[root] aws_db_instance.default (expand)&#45;&gt;[root] provider[&quot;registry.terraform.io/hashicorp/aws&quot;]</title>
<path fill="none" stroke="black" d="M331.73,-287.58C315.01,-279.54 298.63,-268.08 288.96,-252 280.71,-238.29 280.46,-229.56 288.96,-216 358.46,-105.03 510.26,-54.99 607.28,-33.62"/>
<polygon fill="black" stroke="black" points="608,-37.04 617.05,-31.53 606.54,-30.2 608,-37.04"/>
</g>
<!-- [root] var.database_admin_password -->
<g id="node11" class="node">
<title>[root] var.database_admin_password</title>
<polygon fill="none" stroke="black" points="473.83,-252 298.08,-252 298.08,-216 479.83,-216 479.83,-246 473.83,-252"/>
<polyline fill="none" stroke="black" points="473.83,-252 473.83,-246"/>
<polyline fill="none" stroke="black" points="479.83,-246 473.83,-246"/>
<text text-anchor="middle" x="388.96" y="-228.95" font-family="Times,serif" font-size="14.00">var.database_admin_password</text>
</g>
<!-- [root] aws_db_instance.default (expand)&#45;&gt;[root] var.database_admin_password -->
<g id="edge2" class="edge">
<title>[root] aws_db_instance.default (expand)&#45;&gt;[root] var.database_admin_password</title>
<path fill="none" stroke="black" d="M388.96,-287.7C388.96,-280.41 388.96,-271.73 388.96,-263.54"/>
<polygon fill="black" stroke="black" points="392.46,-263.62 388.96,-253.62 385.46,-263.62 392.46,-263.62"/>
</g>
<!-- [root] var.database_admin_username -->
<g id="node12" class="node">
<title>[root] var.database_admin_username</title>
<polygon fill="none" stroke="black" points="675.58,-252 498.33,-252 498.33,-216 681.58,-216 681.58,-246 675.58,-252"/>
<polyline fill="none" stroke="black" points="675.58,-252 675.58,-246"/>
<polyline fill="none" stroke="black" points="681.58,-246 675.58,-246"/>
<text text-anchor="middle" x="589.96" y="-228.95" font-family="Times,serif" font-size="14.00">var.database_admin_username</text>
</g>
<!-- [root] aws_db_instance.default (expand)&#45;&gt;[root] var.database_admin_username -->
<g id="edge3" class="edge">
<title>[root] aws_db_instance.default (expand)&#45;&gt;[root] var.database_admin_username</title>
<path fill="none" stroke="black" d="M439.16,-287.52C466.48,-278 500.49,-266.16 529.29,-256.13"/>
<polygon fill="black" stroke="black" points="530.33,-259.47 538.62,-252.88 528.02,-252.86 530.33,-259.47"/>
</g>
<!-- [root] aws_instance.my_instance (expand) -->
<g id="node2" class="node">
<title>[root] aws_instance.my_instance (expand)</title>
<polygon fill="none" stroke="black" points="1268.33,-324 1107.58,-324 1107.58,-288 1268.33,-288 1268.33,-324"/>
<text text-anchor="middle" x="1187.96" y="-300.95" font-family="Times,serif" font-size="14.00">aws_instance.my_instance</text>
</g>
<!-- [root] aws_security_group.my_sg (expand) -->
<g id="node6" class="node">
<title>[root] aws_security_group.my_sg (expand)</title>
<polygon fill="none" stroke="black" points="1404.58,-252 1239.33,-252 1239.33,-216 1404.58,-216 1404.58,-252"/>
<text text-anchor="middle" x="1321.96" y="-228.95" font-family="Times,serif" font-size="14.00">aws_security_group.my_sg</text>
</g>
<!-- [root] aws_instance.my_instance (expand)&#45;&gt;[root] aws_security_group.my_sg (expand) -->
<g id="edge4" class="edge">
<title>[root] aws_instance.my_instance (expand)&#45;&gt;[root] aws_security_group.my_sg (expand)</title>
<path fill="none" stroke="black" d="M1221.43,-287.52C1238.82,-278.43 1260.29,-267.22 1278.91,-257.49"/>
<polygon fill="black" stroke="black" points="1280.33,-260.69 1287.57,-252.96 1277.09,-254.49 1280.33,-260.69"/>
</g>
<!-- [root] aws_subnet.my_subnet (expand) -->
<g id="node7" class="node">
<title>[root] aws_subnet.my_subnet (expand)</title>
<polygon fill="none" stroke="black" points="1054.33,-252 911.58,-252 911.58,-216 1054.33,-216 1054.33,-252"/>
<text text-anchor="middle" x="982.96" y="-228.95" font-family="Times,serif" font-size="14.00">aws_subnet.my_subnet</text>
</g>
<!-- [root] aws_instance.my_instance (expand)&#45;&gt;[root] aws_subnet.my_subnet (expand) -->
<g id="edge5" class="edge">
<title>[root] aws_instance.my_instance (expand)&#45;&gt;[root] aws_subnet.my_subnet (expand)</title>
<path fill="none" stroke="black" d="M1136.76,-287.52C1108.77,-277.96 1073.9,-266.05 1044.45,-256"/>
<polygon fill="black" stroke="black" points="1045.89,-252.79 1035.29,-252.87 1043.63,-259.41 1045.89,-252.79"/>
</g>
<!-- [root] data.aws_ami.ubuntu (expand) -->
<g id="node9" class="node">
<title>[root] data.aws_ami.ubuntu (expand)</title>
<polygon fill="none" stroke="black" points="1200.08,-108 1067.83,-108 1067.83,-72 1200.08,-72 1200.08,-108"/>
<text text-anchor="middle" x="1133.96" y="-84.95" font-family="Times,serif" font-size="14.00">data.aws_ami.ubuntu</text>
</g>
<!-- [root] aws_instance.my_instance (expand)&#45;&gt;[root] data.aws_ami.ubuntu (expand) -->
<g id="edge6" class="edge">
<title>[root] aws_instance.my_instance (expand)&#45;&gt;[root] data.aws_ami.ubuntu (expand)</title>
<path fill="none" stroke="black" d="M1191.36,-287.71C1194.32,-269.61 1197.36,-240.47 1191.96,-216 1184.06,-180.23 1164.86,-142.53 1150.7,-118"/>
<polygon fill="black" stroke="black" points="1153.87,-116.47 1145.76,-109.65 1147.84,-120.04 1153.87,-116.47"/>
</g>
<!-- [root] var.instance_type -->
<g id="node13" class="node">
<title>[root] var.instance_type</title>
<polygon fill="none" stroke="black" points="1177.21,-252 1072.71,-252 1072.71,-216 1183.21,-216 1183.21,-246 1177.21,-252"/>
<polyline fill="none" stroke="black" points="1177.21,-252 1177.21,-246"/>
<polyline fill="none" stroke="black" points="1183.21,-246 1177.21,-246"/>
<text text-anchor="middle" x="1127.96" y="-228.95" font-family="Times,serif" font-size="14.00">var.instance_type</text>
</g>
<!-- [root] aws_instance.my_instance (expand)&#45;&gt;[root] var.instance_type -->
<g id="edge7" class="edge">
<title>[root] aws_instance.my_instance (expand)&#45;&gt;[root] var.instance_type</title>
<path fill="none" stroke="black" d="M1173.13,-287.7C1166.15,-279.56 1157.69,-269.69 1149.99,-260.7"/>
<polygon fill="black" stroke="black" points="1152.77,-258.57 1143.6,-253.25 1147.45,-263.12 1152.77,-258.57"/>
</g>
<!-- [root] aws_internet_gateway.my_igw (expand) -->
<g id="node3" class="node">
<title>[root] aws_internet_gateway.my_igw (expand)</title>
<polygon fill="none" stroke="black" points="889.33,-180 704.58,-180 704.58,-144 889.33,-144 889.33,-180"/>
<text text-anchor="middle" x="796.96" y="-156.95" font-family="Times,serif" font-size="14.00">aws_internet_gateway.my_igw</text>
</g>
<!-- [root] aws_vpc.my_vpc (expand) -->
<g id="node8" class="node">
<title>[root] aws_vpc.my_vpc (expand)</title>
<polygon fill="none" stroke="black" points="912.58,-108 801.33,-108 801.33,-72 912.58,-72 912.58,-108"/>
<text text-anchor="middle" x="856.96" y="-84.95" font-family="Times,serif" font-size="14.00">aws_vpc.my_vpc</text>
</g>
<!-- [root] aws_internet_gateway.my_igw (expand)&#45;&gt;[root] aws_vpc.my_vpc (expand) -->
<g id="edge8" class="edge">
<title>[root] aws_internet_gateway.my_igw (expand)&#45;&gt;[root] aws_vpc.my_vpc (expand)</title>
<path fill="none" stroke="black" d="M811.79,-143.7C818.76,-135.56 827.22,-125.69 834.93,-116.7"/>
<polygon fill="black" stroke="black" points="837.46,-119.12 841.31,-109.25 832.15,-114.57 837.46,-119.12"/>
</g>
<!-- [root] aws_route_table.my_route_table (expand) -->
<g id="node4" class="node">
<title>[root] aws_route_table.my_route_table (expand)</title>
<polygon fill="none" stroke="black" points="893.83,-252 700.08,-252 700.08,-216 893.83,-216 893.83,-252"/>
<text text-anchor="middle" x="796.96" y="-228.95" font-family="Times,serif" font-size="14.00">aws_route_table.my_route_table</text>
</g>
<!-- [root] aws_route_table.my_route_table (expand)&#45;&gt;[root] aws_internet_gateway.my_igw (expand) -->
<g id="edge9" class="edge">
<title>[root] aws_route_table.my_route_table (expand)&#45;&gt;[root] aws_internet_gateway.my_igw (expand)</title>
<path fill="none" stroke="black" d="M796.96,-215.7C796.96,-208.41 796.96,-199.73 796.96,-191.54"/>
<polygon fill="black" stroke="black" points="800.46,-191.62 796.96,-181.62 793.46,-191.62 800.46,-191.62"/>
</g>
<!-- [root] aws_route_table_association.my_rta (expand) -->
<g id="node5" class="node">
<title>[root] aws_route_table_association.my_rta (expand)</title>
<polygon fill="none" stroke="black" points="1067.96,-324 853.96,-324 853.96,-288 1067.96,-288 1067.96,-324"/>
<text text-anchor="middle" x="960.96" y="-300.95" font-family="Times,serif" font-size="14.00">aws_route_table_association.my_rta</text>
</g>
<!-- [root] aws_route_table_association.my_rta (expand)&#45;&gt;[root] aws_route_table.my_route_table (expand) -->
<g id="edge10" class="edge">
<title>[root] aws_route_table_association.my_rta (expand)&#45;&gt;[root] aws_route_table.my_route_table (expand)</title>
<path fill="none" stroke="black" d="M920,-287.52C898.19,-278.21 871.18,-266.68 848.02,-256.79"/>
<polygon fill="black" stroke="black" points="849.64,-253.68 839.07,-252.98 846.9,-260.12 849.64,-253.68"/>
</g>
<!-- [root] aws_route_table_association.my_rta (expand)&#45;&gt;[root] aws_subnet.my_subnet (expand) -->
<g id="edge11" class="edge">
<title>[root] aws_route_table_association.my_rta (expand)&#45;&gt;[root] aws_subnet.my_subnet (expand)</title>
<path fill="none" stroke="black" d="M966.4,-287.7C968.74,-280.24 971.54,-271.32 974.17,-262.97"/>
<polygon fill="black" stroke="black" points="977.47,-264.14 977.13,-253.55 970.79,-262.04 977.47,-264.14"/>
</g>
<!-- [root] aws_security_group.my_sg (expand)&#45;&gt;[root] aws_vpc.my_vpc (expand) -->
<g id="edge12" class="edge">
<title>[root] aws_security_group.my_sg (expand)&#45;&gt;[root] aws_vpc.my_vpc (expand)</title>
<path fill="none" stroke="black" d="M1272.34,-215.57C1218.75,-196.96 1130.73,-167.05 1053.96,-144 1010.89,-131.07 962.08,-117.93 923.82,-107.96"/>
<polygon fill="black" stroke="black" points="924.84,-104.61 914.28,-105.49 923.09,-111.39 924.84,-104.61"/>
</g>
<!-- [root] aws_subnet.my_subnet (expand)&#45;&gt;[root] aws_vpc.my_vpc (expand) -->
<g id="edge13" class="edge">
<title>[root] aws_subnet.my_subnet (expand)&#45;&gt;[root] aws_vpc.my_vpc (expand)</title>
<path fill="none" stroke="black" d="M967.51,-215.59C945.47,-190.76 904.88,-145.01 879.49,-116.4"/>
<polygon fill="black" stroke="black" points="882.4,-114.4 873.14,-109.24 877.16,-119.05 882.4,-114.4"/>
</g>
<!-- [root] var.subnet_cidr -->
<g id="node14" class="node">
<title>[root] var.subnet_cidr</title>
<polygon fill="none" stroke="black" points="1038.58,-180 945.33,-180 945.33,-144 1044.58,-144 1044.58,-174 1038.58,-180"/>
<polyline fill="none" stroke="black" points="1038.58,-180 1038.58,-174"/>
<polyline fill="none" stroke="black" points="1044.58,-174 1038.58,-174"/>
<text text-anchor="middle" x="994.96" y="-156.95" font-family="Times,serif" font-size="14.00">var.subnet_cidr</text>
</g>
<!-- [root] aws_subnet.my_subnet (expand)&#45;&gt;[root] var.subnet_cidr -->
<g id="edge14" class="edge">
<title>[root] aws_subnet.my_subnet (expand)&#45;&gt;[root] var.subnet_cidr</title>
<path fill="none" stroke="black" d="M985.92,-215.7C987.19,-208.32 988.7,-199.52 990.11,-191.25"/>
<polygon fill="black" stroke="black" points="993.53,-192.04 991.77,-181.6 986.63,-190.86 993.53,-192.04"/>
</g>
<!-- [root] aws_vpc.my_vpc (expand)&#45;&gt;[root] provider[&quot;registry.terraform.io/hashicorp/aws&quot;] -->
<g id="edge15" class="edge">
<title>[root] aws_vpc.my_vpc (expand)&#45;&gt;[root] provider[&quot;registry.terraform.io/hashicorp/aws&quot;]</title>
<path fill="none" stroke="black" d="M816.5,-71.52C793.23,-61.46 763.95,-48.81 739.96,-38.45"/>
<polygon fill="black" stroke="black" points="741.65,-35.36 731.08,-34.61 738.87,-41.79 741.65,-35.36"/>
</g>
<!-- [root] var.vpc_cidr -->
<g id="node15" class="node">
<title>[root] var.vpc_cidr</title>
<polygon fill="none" stroke="black" points="1054.71,-36 977.21,-36 977.21,0 1060.71,0 1060.71,-30 1054.71,-36"/>
<polyline fill="none" stroke="black" points="1054.71,-36 1054.71,-30"/>
<polyline fill="none" stroke="black" points="1060.71,-30 1054.71,-30"/>
<text text-anchor="middle" x="1018.96" y="-12.95" font-family="Times,serif" font-size="14.00">var.vpc_cidr</text>
</g>
<!-- [root] aws_vpc.my_vpc (expand)&#45;&gt;[root] var.vpc_cidr -->
<g id="edge16" class="edge">
<title>[root] aws_vpc.my_vpc (expand)&#45;&gt;[root] var.vpc_cidr</title>
<path fill="none" stroke="black" d="M897.42,-71.52C918.86,-62.25 945.4,-50.78 968.21,-40.93"/>
<polygon fill="black" stroke="black" points="969.55,-44.16 977.34,-36.98 966.77,-37.74 969.55,-44.16"/>
</g>
<!-- [root] data.aws_ami.ubuntu (expand)&#45;&gt;[root] provider[&quot;registry.terraform.io/hashicorp/aws&quot;] -->
<g id="edge17" class="edge">
<title>[root] data.aws_ami.ubuntu (expand)&#45;&gt;[root] provider[&quot;registry.terraform.io/hashicorp/aws&quot;]</title>
<path fill="none" stroke="black" d="M1067.76,-78.44C991.84,-66.34 867.07,-46.44 783.01,-33.04"/>
<polygon fill="black" stroke="black" points="783.6,-29.59 773.18,-31.47 782.5,-36.5 783.6,-29.59"/>
</g>
<!-- [root] output.db_address (expand) -->
<g id="node16" class="node">
<title>[root] output.db_address (expand)</title>
<ellipse fill="none" stroke="black" cx="285.96" cy="-378" rx="137.34" ry="18"/>
<text text-anchor="middle" x="285.96" y="-372.95" font-family="Times,serif" font-size="14.00">[root] output.db_address (expand)</text>
</g>
<!-- [root] output.db_address (expand)&#45;&gt;[root] aws_db_instance.default (expand) -->
<g id="edge18" class="edge">
<title>[root] output.db_address (expand)&#45;&gt;[root] aws_db_instance.default (expand)</title>
<path fill="none" stroke="black" d="M311.15,-359.88C324.03,-351.13 339.89,-340.34 353.94,-330.8"/>
<polygon fill="black" stroke="black" points="355.75,-333.8 362.05,-325.28 351.82,-328.01 355.75,-333.8"/>
</g>
<!-- [root] output.ip_publique_instance_ec2 (expand) -->
<g id="node17" class="node">
<title>[root] output.ip_publique_instance_ec2 (expand)</title>
<ellipse fill="none" stroke="black" cx="1408.96" cy="-378" rx="192.1" ry="18"/>
<text text-anchor="middle" x="1408.96" y="-372.95" font-family="Times,serif" font-size="14.00">[root] output.ip_publique_instance_ec2 (expand)</text>
</g>
<!-- [root] output.ip_publique_instance_ec2 (expand)&#45;&gt;[root] aws_instance.my_instance (expand) -->
<g id="edge19" class="edge">
<title>[root] output.ip_publique_instance_ec2 (expand)&#45;&gt;[root] aws_instance.my_instance (expand)</title>
<path fill="none" stroke="black" d="M1356.02,-360.23C1325.39,-350.53 1286.57,-338.23 1253.96,-327.9"/>
<polygon fill="black" stroke="black" points="1255.19,-324.62 1244.6,-324.94 1253.08,-331.3 1255.19,-324.62"/>
</g>
<!-- [root] output.security_group_id (expand) -->
<g id="node18" class="node">
<title>[root] output.security_group_id (expand)</title>
<ellipse fill="none" stroke="black" cx="1538.96" cy="-306" rx="162.93" ry="18"/>
<text text-anchor="middle" x="1538.96" y="-300.95" font-family="Times,serif" font-size="14.00">[root] output.security_group_id (expand)</text>
</g>
<!-- [root] output.security_group_id (expand)&#45;&gt;[root] aws_security_group.my_sg (expand) -->
<g id="edge20" class="edge">
<title>[root] output.security_group_id (expand)&#45;&gt;[root] aws_security_group.my_sg (expand)</title>
<path fill="none" stroke="black" d="M1487.81,-288.5C1457.64,-278.77 1419.16,-266.36 1386.87,-255.94"/>
<polygon fill="black" stroke="black" points="1388.21,-252.69 1377.62,-252.95 1386.06,-259.36 1388.21,-252.69"/>
</g>
<!-- [root] output.subnet_id (expand) -->
<g id="node19" class="node">
<title>[root] output.subnet_id (expand)</title>
<ellipse fill="none" stroke="black" cx="572.96" cy="-378" rx="131.71" ry="18"/>
<text text-anchor="middle" x="572.96" y="-372.95" font-family="Times,serif" font-size="14.00">[root] output.subnet_id (expand)</text>
</g>
<!-- [root] output.subnet_id (expand)&#45;&gt;[root] aws_subnet.my_subnet (expand) -->
<g id="edge21" class="edge">
<title>[root] output.subnet_id (expand)&#45;&gt;[root] aws_subnet.my_subnet (expand)</title>
<path fill="none" stroke="black" d="M619.99,-360.71C694.47,-334.91 839.54,-284.67 921.94,-256.13"/>
<polygon fill="black" stroke="black" points="922.91,-259.5 931.21,-252.92 920.62,-252.89 922.91,-259.5"/>
</g>
<!-- [root] output.vpc_id (expand) -->
<g id="node20" class="node">
<title>[root] output.vpc_id (expand)</title>
<ellipse fill="none" stroke="black" cx="120.96" cy="-162" rx="120.96" ry="18"/>
<text text-anchor="middle" x="120.96" y="-156.95" font-family="Times,serif" font-size="14.00">[root] output.vpc_id (expand)</text>
</g>
<!-- [root] output.vpc_id (expand)&#45;&gt;[root] aws_vpc.my_vpc (expand) -->
<g id="edge22" class="edge">
<title>[root] output.vpc_id (expand)&#45;&gt;[root] aws_vpc.my_vpc (expand)</title>
<path fill="none" stroke="black" d="M220.6,-151.52C372.89,-137.04 659.55,-109.78 789.67,-97.4"/>
<polygon fill="black" stroke="black" points="789.88,-100.9 799.51,-96.46 789.22,-93.93 789.88,-100.9"/>
</g>
<!-- [root] provider[&quot;registry.terraform.io/hashicorp/aws&quot;] (close) -->
<g id="node21" class="node">
<title>[root] provider[&quot;registry.terraform.io/hashicorp/aws&quot;] (close)</title>
<ellipse fill="none" stroke="black" cx="960.96" cy="-378" rx="238.16" ry="18"/>
<text text-anchor="middle" x="960.96" y="-372.95" font-family="Times,serif" font-size="14.00">[root] provider[&quot;registry.terraform.io/hashicorp/aws&quot;] (close)</text>
</g>
<!-- [root] provider[&quot;registry.terraform.io/hashicorp/aws&quot;] (close)&#45;&gt;[root] aws_db_instance.default (expand) -->
<g id="edge23" class="edge">
<title>[root] provider[&quot;registry.terraform.io/hashicorp/aws&quot;] (close)&#45;&gt;[root] aws_db_instance.default (expand)</title>
<path fill="none" stroke="black" d="M839.3,-362.11C729.97,-348.73 572.14,-329.42 475.28,-317.56"/>
<polygon fill="black" stroke="black" points="475.93,-314.12 465.58,-316.38 475.08,-321.07 475.93,-314.12"/>
</g>
<!-- [root] provider[&quot;registry.terraform.io/hashicorp/aws&quot;] (close)&#45;&gt;[root] aws_instance.my_instance (expand) -->
<g id="edge24" class="edge">
<title>[root] provider[&quot;registry.terraform.io/hashicorp/aws&quot;] (close)&#45;&gt;[root] aws_instance.my_instance (expand)</title>
<path fill="none" stroke="black" d="M1015.91,-360.05C1047.52,-350.31 1087.48,-337.98 1120.93,-327.67"/>
<polygon fill="black" stroke="black" points="1121.57,-331.13 1130.09,-324.84 1119.51,-324.45 1121.57,-331.13"/>
</g>
<!-- [root] provider[&quot;registry.terraform.io/hashicorp/aws&quot;] (close)&#45;&gt;[root] aws_route_table_association.my_rta (expand) -->
<g id="edge25" class="edge">
<title>[root] provider[&quot;registry.terraform.io/hashicorp/aws&quot;] (close)&#45;&gt;[root] aws_route_table_association.my_rta (expand)</title>
<path fill="none" stroke="black" d="M960.96,-359.7C960.96,-352.41 960.96,-343.73 960.96,-335.54"/>
<polygon fill="black" stroke="black" points="964.46,-335.62 960.96,-325.62 957.46,-335.62 964.46,-335.62"/>
</g>
<!-- [root] root -->
<g id="node22" class="node">
<title>[root] root</title>
<ellipse fill="none" stroke="black" cx="766.96" cy="-450" rx="49.3" ry="18"/>
<text text-anchor="middle" x="766.96" y="-444.95" font-family="Times,serif" font-size="14.00">[root] root</text>
</g>
<!-- [root] root&#45;&gt;[root] output.db_address (expand) -->
<g id="edge26" class="edge">
<title>[root] root&#45;&gt;[root] output.db_address (expand)</title>
<path fill="none" stroke="black" d="M721.71,-442.41C645.52,-431.33 489.86,-408.67 386.71,-393.66"/>
<polygon fill="black" stroke="black" points="387.24,-390.2 376.84,-392.23 386.23,-397.13 387.24,-390.2"/>
</g>
<!-- [root] root&#45;&gt;[root] output.ip_publique_instance_ec2 (expand) -->
<g id="edge27" class="edge">
<title>[root] root&#45;&gt;[root] output.ip_publique_instance_ec2 (expand)</title>
<path fill="none" stroke="black" d="M813.91,-443.88C909.97,-433.41 1132.04,-409.19 1276.06,-393.49"/>
<polygon fill="black" stroke="black" points="1276.09,-397.01 1285.65,-392.44 1275.33,-390.05 1276.09,-397.01"/>
</g>
<!-- [root] root&#45;&gt;[root] output.security_group_id (expand) -->
<g id="edge28" class="edge">
<title>[root] root&#45;&gt;[root] output.security_group_id (expand)</title>
<path fill="none" stroke="black" d="M816.27,-447.74C992.56,-443.02 1582.65,-425.08 1609.96,-396 1620.91,-384.34 1617.13,-374.3 1609.96,-360 1604.04,-348.2 1594.1,-338.35 1583.51,-330.47"/>
<polygon fill="black" stroke="black" points="1585.6,-327.66 1575.37,-324.91 1581.66,-333.44 1585.6,-327.66"/>
</g>
<!-- [root] root&#45;&gt;[root] output.subnet_id (expand) -->
<g id="edge29" class="edge">
<title>[root] root&#45;&gt;[root] output.subnet_id (expand)</title>
<path fill="none" stroke="black" d="M732.72,-436.65C703.96,-426.27 662.3,-411.24 628.74,-399.13"/>
<polygon fill="black" stroke="black" points="630.17,-395.92 619.57,-395.82 627.79,-402.51 630.17,-395.92"/>
</g>
<!-- [root] root&#45;&gt;[root] output.vpc_id (expand) -->
<g id="edge30" class="edge">
<title>[root] root&#45;&gt;[root] output.vpc_id (expand)</title>
<path fill="none" stroke="black" d="M717.42,-448.42C576.43,-446.26 180.45,-436.61 139.96,-396 85.82,-341.7 101.24,-240.65 113.04,-191.42"/>
<polygon fill="black" stroke="black" points="116.41,-192.38 115.47,-181.83 109.62,-190.66 116.41,-192.38"/>
</g>
<!-- [root] root&#45;&gt;[root] provider[&quot;registry.terraform.io/hashicorp/aws&quot;] (close) -->
<g id="edge31" class="edge">
<title>[root] root&#45;&gt;[root] provider[&quot;registry.terraform.io/hashicorp/aws&quot;] (close)</title>
<path fill="none" stroke="black" d="M801.19,-436.65C829.36,-426.48 869.91,-411.85 903.11,-399.87"/>
<polygon fill="black" stroke="black" points="903.96,-403.29 912.18,-396.6 901.58,-396.7 903.96,-403.29"/>
</g>
</g>
</svg>
