<?xml version="1.0" encoding="UTF-8" standalone="no"?>
<!DOCTYPE svg PUBLIC "-//W3C//DTD SVG 1.1//EN"
 "http://www.w3.org/Graphics/SVG/1.1/DTD/svg11.dtd">
<!-- Generated by graphviz version 9.0.0 (20230911.1827)
 -->
<!-- Pages: 1 -->
<svg width="2121pt" height="476pt"
 viewBox="0.00 0.00 2120.66 476.00" xmlns="http://www.w3.org/2000/svg" xmlns:xlink="http://www.w3.org/1999/xlink">
<g id="graph0" class="graph" transform="scale(1 1) rotate(0) translate(4 472)">
<polygon fill="white" stroke="none" points="-4,4 -4,-472 2116.66,-472 2116.66,4 -4,4"/>
<!-- [root] aws_db_instance.default (expand) -->
<g id="node1" class="node">
<title>[root] aws_db_instance.default (expand)</title>
<polygon fill="none" stroke="black" points="646.46,-324 496.96,-324 496.96,-288 646.46,-288 646.46,-324"/>
<text text-anchor="middle" x="571.71" y="-300.95" font-family="Times,serif" font-size="14.00">aws_db_instance.default</text>
</g>
<!-- [root] provider[&quot;registry.terraform.io/hashicorp/aws&quot;] -->
<g id="node12" class="node">
<title>[root] provider[&quot;registry.terraform.io/hashicorp/aws&quot;]</title>
<polygon fill="none" stroke="black" points="1101.71,-36 837.27,-18 1101.71,0 1366.14,-18 1101.71,-36"/>
<text text-anchor="middle" x="1101.71" y="-12.95" font-family="Times,serif" font-size="14.00">provider[&quot;registry.terraform.io/hashicorp/aws&quot;]</text>
</g>
<!-- [root] aws_db_instance.default (expand)&#45;&gt;[root] provider[&quot;registry.terraform.io/hashicorp/aws&quot;] -->
<g id="edge1" class="edge">
<title>[root] aws_db_instance.default (expand)&#45;&gt;[root] provider[&quot;registry.terraform.io/hashicorp/aws&quot;]</title>
<path fill="none" stroke="black" d="M621.11,-287.52C639.03,-279.12 658.18,-267.45 671.71,-252 705.42,-213.49 674.73,-179.39 711.71,-144 783.35,-75.42 892.71,-44.46 977.41,-30.49"/>
<polygon fill="black" stroke="black" points="977.84,-33.97 987.17,-28.95 976.74,-27.05 977.84,-33.97"/>
</g>
<!-- [root] var.database_admin_password -->
<g id="node13" class="node">
<title>[root] var.database_admin_password</title>
<polygon fill="none" stroke="black" points="656.58,-252 480.83,-252 480.83,-216 662.58,-216 662.58,-246 656.58,-252"/>
<polyline fill="none" stroke="black" points="656.58,-252 656.58,-246"/>
<polyline fill="none" stroke="black" points="662.58,-246 656.58,-246"/>
<text text-anchor="middle" x="571.71" y="-228.95" font-family="Times,serif" font-size="14.00">var.database_admin_password</text>
</g>
<!-- [root] aws_db_instance.default (expand)&#45;&gt;[root] var.database_admin_password -->
<g id="edge2" class="edge">
<title>[root] aws_db_instance.default (expand)&#45;&gt;[root] var.database_admin_password</title>
<path fill="none" stroke="black" d="M571.71,-287.7C571.71,-280.41 571.71,-271.73 571.71,-263.54"/>
<polygon fill="black" stroke="black" points="575.21,-263.62 571.71,-253.62 568.21,-263.62 575.21,-263.62"/>
</g>
<!-- [root] var.database_admin_username -->
<g id="node14" class="node">
<title>[root] var.database_admin_username</title>
<polygon fill="none" stroke="black" points="456.33,-252 279.08,-252 279.08,-216 462.33,-216 462.33,-246 456.33,-252"/>
<polyline fill="none" stroke="black" points="456.33,-252 456.33,-246"/>
<polyline fill="none" stroke="black" points="462.33,-246 456.33,-246"/>
<text text-anchor="middle" x="370.71" y="-228.95" font-family="Times,serif" font-size="14.00">var.database_admin_username</text>
</g>
<!-- [root] aws_db_instance.default (expand)&#45;&gt;[root] var.database_admin_username -->
<g id="edge3" class="edge">
<title>[root] aws_db_instance.default (expand)&#45;&gt;[root] var.database_admin_username</title>
<path fill="none" stroke="black" d="M521.5,-287.52C494.18,-278 460.17,-266.16 431.37,-256.13"/>
<polygon fill="black" stroke="black" points="432.64,-252.86 422.04,-252.88 430.34,-259.47 432.64,-252.86"/>
</g>
<!-- [root] aws_elb.my_elb (expand) -->
<g id="node2" class="node">
<title>[root] aws_elb.my_elb (expand)</title>
<polygon fill="none" stroke="black" points="1214.33,-324 1109.08,-324 1109.08,-288 1214.33,-288 1214.33,-324"/>
<text text-anchor="middle" x="1161.71" y="-300.95" font-family="Times,serif" font-size="14.00">aws_elb.my_elb</text>
</g>
<!-- [root] aws_instance.my_instance1 (expand) -->
<g id="node3" class="node">
<title>[root] aws_instance.my_instance1 (expand)</title>
<polygon fill="none" stroke="black" points="1396.46,-252 1228.96,-252 1228.96,-216 1396.46,-216 1396.46,-252"/>
<text text-anchor="middle" x="1312.71" y="-228.95" font-family="Times,serif" font-size="14.00">aws_instance.my_instance1</text>
</g>
<!-- [root] aws_elb.my_elb (expand)&#45;&gt;[root] aws_instance.my_instance1 (expand) -->
<g id="edge4" class="edge">
<title>[root] aws_elb.my_elb (expand)&#45;&gt;[root] aws_instance.my_instance1 (expand)</title>
<path fill="none" stroke="black" d="M1199.42,-287.52C1219.22,-278.34 1243.7,-266.99 1264.83,-257.2"/>
<polygon fill="black" stroke="black" points="1266.24,-260.4 1273.84,-253.02 1263.29,-254.05 1266.24,-260.4"/>
</g>
<!-- [root] aws_instance.my_instance2 (expand) -->
<g id="node4" class="node">
<title>[root] aws_instance.my_instance2 (expand)</title>
<polygon fill="none" stroke="black" points="1210.46,-252 1042.96,-252 1042.96,-216 1210.46,-216 1210.46,-252"/>
<text text-anchor="middle" x="1126.71" y="-228.95" font-family="Times,serif" font-size="14.00">aws_instance.my_instance2</text>
</g>
<!-- [root] aws_elb.my_elb (expand)&#45;&gt;[root] aws_instance.my_instance2 (expand) -->
<g id="edge5" class="edge">
<title>[root] aws_elb.my_elb (expand)&#45;&gt;[root] aws_instance.my_instance2 (expand)</title>
<path fill="none" stroke="black" d="M1153.05,-287.7C1149.24,-280.07 1144.66,-270.92 1140.4,-262.4"/>
<polygon fill="black" stroke="black" points="1143.54,-260.84 1135.93,-253.46 1137.28,-263.97 1143.54,-260.84"/>
</g>
<!-- [root] aws_security_group.my_sg (expand) -->
<g id="node8" class="node">
<title>[root] aws_security_group.my_sg (expand)</title>
<polygon fill="none" stroke="black" points="1528.33,-180 1363.08,-180 1363.08,-144 1528.33,-144 1528.33,-180"/>
<text text-anchor="middle" x="1445.71" y="-156.95" font-family="Times,serif" font-size="14.00">aws_security_group.my_sg</text>
</g>
<!-- [root] aws_instance.my_instance1 (expand)&#45;&gt;[root] aws_security_group.my_sg (expand) -->
<g id="edge6" class="edge">
<title>[root] aws_instance.my_instance1 (expand)&#45;&gt;[root] aws_security_group.my_sg (expand)</title>
<path fill="none" stroke="black" d="M1345.92,-215.52C1363.19,-206.43 1384.49,-195.22 1402.98,-185.49"/>
<polygon fill="black" stroke="black" points="1404.35,-188.72 1411.57,-180.97 1401.09,-182.53 1404.35,-188.72"/>
</g>
<!-- [root] aws_subnet.my_subnet (expand) -->
<g id="node9" class="node">
<title>[root] aws_subnet.my_subnet (expand)</title>
<polygon fill="none" stroke="black" points="1066.08,-180 923.33,-180 923.33,-144 1066.08,-144 1066.08,-180"/>
<text text-anchor="middle" x="994.71" y="-156.95" font-family="Times,serif" font-size="14.00">aws_subnet.my_subnet</text>
</g>
<!-- [root] aws_instance.my_instance1 (expand)&#45;&gt;[root] aws_subnet.my_subnet (expand) -->
<g id="edge7" class="edge">
<title>[root] aws_instance.my_instance1 (expand)&#45;&gt;[root] aws_subnet.my_subnet (expand)</title>
<path fill="none" stroke="black" d="M1233.28,-215.52C1185.75,-205.05 1125.43,-191.78 1077.34,-181.19"/>
<polygon fill="black" stroke="black" points="1078.34,-177.83 1067.82,-179.09 1076.83,-184.66 1078.34,-177.83"/>
</g>
<!-- [root] data.aws_ami.ubuntu (expand) -->
<g id="node11" class="node">
<title>[root] data.aws_ami.ubuntu (expand)</title>
<polygon fill="none" stroke="black" points="1344.83,-180 1212.58,-180 1212.58,-144 1344.83,-144 1344.83,-180"/>
<text text-anchor="middle" x="1278.71" y="-156.95" font-family="Times,serif" font-size="14.00">data.aws_ami.ubuntu</text>
</g>
<!-- [root] aws_instance.my_instance1 (expand)&#45;&gt;[root] data.aws_ami.ubuntu (expand) -->
<g id="edge8" class="edge">
<title>[root] aws_instance.my_instance1 (expand)&#45;&gt;[root] data.aws_ami.ubuntu (expand)</title>
<path fill="none" stroke="black" d="M1304.3,-215.7C1300.6,-208.07 1296.15,-198.92 1292.01,-190.4"/>
<polygon fill="black" stroke="black" points="1295.19,-188.93 1287.67,-181.47 1288.9,-191.99 1295.19,-188.93"/>
</g>
<!-- [root] var.instance_type -->
<g id="node15" class="node">
<title>[root] var.instance_type</title>
<polygon fill="none" stroke="black" points="1188.96,-180 1084.46,-180 1084.46,-144 1194.96,-144 1194.96,-174 1188.96,-180"/>
<polyline fill="none" stroke="black" points="1188.96,-180 1188.96,-174"/>
<polyline fill="none" stroke="black" points="1194.96,-174 1188.96,-174"/>
<text text-anchor="middle" x="1139.71" y="-156.95" font-family="Times,serif" font-size="14.00">var.instance_type</text>
</g>
<!-- [root] aws_instance.my_instance1 (expand)&#45;&gt;[root] var.instance_type -->
<g id="edge9" class="edge">
<title>[root] aws_instance.my_instance1 (expand)&#45;&gt;[root] var.instance_type</title>
<path fill="none" stroke="black" d="M1269.5,-215.52C1246.39,-206.17 1217.74,-194.57 1193.24,-184.66"/>
<polygon fill="black" stroke="black" points="1194.65,-181.46 1184.07,-180.95 1192.02,-187.94 1194.65,-181.46"/>
</g>
<!-- [root] aws_instance.my_instance2 (expand)&#45;&gt;[root] aws_security_group.my_sg (expand) -->
<g id="edge10" class="edge">
<title>[root] aws_instance.my_instance2 (expand)&#45;&gt;[root] aws_security_group.my_sg (expand)</title>
<path fill="none" stroke="black" d="M1206.38,-215.52C1251.57,-205.6 1308.27,-193.16 1355.15,-182.87"/>
<polygon fill="black" stroke="black" points="1355.72,-186.33 1364.74,-180.77 1354.22,-179.49 1355.72,-186.33"/>
</g>
<!-- [root] aws_instance.my_instance2 (expand)&#45;&gt;[root] aws_subnet.my_subnet (expand) -->
<g id="edge11" class="edge">
<title>[root] aws_instance.my_instance2 (expand)&#45;&gt;[root] aws_subnet.my_subnet (expand)</title>
<path fill="none" stroke="black" d="M1093.74,-215.52C1076.68,-206.47 1055.65,-195.32 1037.37,-185.62"/>
<polygon fill="black" stroke="black" points="1039.07,-182.56 1028.59,-180.97 1035.79,-188.75 1039.07,-182.56"/>
</g>
<!-- [root] aws_instance.my_instance2 (expand)&#45;&gt;[root] data.aws_ami.ubuntu (expand) -->
<g id="edge12" class="edge">
<title>[root] aws_instance.my_instance2 (expand)&#45;&gt;[root] data.aws_ami.ubuntu (expand)</title>
<path fill="none" stroke="black" d="M1164.67,-215.52C1184.6,-206.34 1209.24,-194.99 1230.51,-185.2"/>
<polygon fill="black" stroke="black" points="1231.97,-188.38 1239.59,-181.01 1229.04,-182.02 1231.97,-188.38"/>
</g>
<!-- [root] aws_instance.my_instance2 (expand)&#45;&gt;[root] var.instance_type -->
<g id="edge13" class="edge">
<title>[root] aws_instance.my_instance2 (expand)&#45;&gt;[root] var.instance_type</title>
<path fill="none" stroke="black" d="M1129.92,-215.7C1131.29,-208.32 1132.92,-199.52 1134.46,-191.25"/>
<polygon fill="black" stroke="black" points="1137.87,-192.06 1136.25,-181.59 1130.99,-190.79 1137.87,-192.06"/>
</g>
<!-- [root] aws_internet_gateway.my_igw (expand) -->
<g id="node5" class="node">
<title>[root] aws_internet_gateway.my_igw (expand)</title>
<polygon fill="none" stroke="black" points="905.08,-180 720.33,-180 720.33,-144 905.08,-144 905.08,-180"/>
<text text-anchor="middle" x="812.71" y="-156.95" font-family="Times,serif" font-size="14.00">aws_internet_gateway.my_igw</text>
</g>
<!-- [root] aws_vpc.my_vpc (expand) -->
<g id="node10" class="node">
<title>[root] aws_vpc.my_vpc (expand)</title>
<polygon fill="none" stroke="black" points="1408.33,-108 1297.08,-108 1297.08,-72 1408.33,-72 1408.33,-108"/>
<text text-anchor="middle" x="1352.71" y="-84.95" font-family="Times,serif" font-size="14.00">aws_vpc.my_vpc</text>
</g>
<!-- [root] aws_internet_gateway.my_igw (expand)&#45;&gt;[root] aws_vpc.my_vpc (expand) -->
<g id="edge14" class="edge">
<title>[root] aws_internet_gateway.my_igw (expand)&#45;&gt;[root] aws_vpc.my_vpc (expand)</title>
<path fill="none" stroke="black" d="M905.52,-145.35C908.61,-144.89 911.68,-144.43 914.71,-144 1045.54,-125.19 1199.01,-107.66 1285.15,-98.23"/>
<polygon fill="black" stroke="black" points="1285.53,-101.71 1295.09,-97.14 1284.77,-94.75 1285.53,-101.71"/>
</g>
<!-- [root] aws_route_table.my_route_table (expand) -->
<g id="node6" class="node">
<title>[root] aws_route_table.my_route_table (expand)</title>
<polygon fill="none" stroke="black" points="912.58,-252 718.83,-252 718.83,-216 912.58,-216 912.58,-252"/>
<text text-anchor="middle" x="815.71" y="-228.95" font-family="Times,serif" font-size="14.00">aws_route_table.my_route_table</text>
</g>
<!-- [root] aws_route_table.my_route_table (expand)&#45;&gt;[root] aws_internet_gateway.my_igw (expand) -->
<g id="edge15" class="edge">
<title>[root] aws_route_table.my_route_table (expand)&#45;&gt;[root] aws_internet_gateway.my_igw (expand)</title>
<path fill="none" stroke="black" d="M814.96,-215.7C814.65,-208.41 814.28,-199.73 813.93,-191.54"/>
<polygon fill="black" stroke="black" points="817.43,-191.46 813.5,-181.62 810.43,-191.76 817.43,-191.46"/>
</g>
<!-- [root] aws_route_table_association.my_rta (expand) -->
<g id="node7" class="node">
<title>[root] aws_route_table_association.my_rta (expand)</title>
<polygon fill="none" stroke="black" points="922.71,-324 708.71,-324 708.71,-288 922.71,-288 922.71,-324"/>
<text text-anchor="middle" x="815.71" y="-300.95" font-family="Times,serif" font-size="14.00">aws_route_table_association.my_rta</text>
</g>
<!-- [root] aws_route_table_association.my_rta (expand)&#45;&gt;[root] aws_route_table.my_route_table (expand) -->
<g id="edge16" class="edge">
<title>[root] aws_route_table_association.my_rta (expand)&#45;&gt;[root] aws_route_table.my_route_table (expand)</title>
<path fill="none" stroke="black" d="M815.71,-287.7C815.71,-280.41 815.71,-271.73 815.71,-263.54"/>
<polygon fill="black" stroke="black" points="819.21,-263.62 815.71,-253.62 812.21,-263.62 819.21,-263.62"/>
</g>
<!-- [root] aws_route_table_association.my_rta (expand)&#45;&gt;[root] aws_subnet.my_subnet (expand) -->
<g id="edge17" class="edge">
<title>[root] aws_route_table_association.my_rta (expand)&#45;&gt;[root] aws_subnet.my_subnet (expand)</title>
<path fill="none" stroke="black" d="M860.71,-287.56C880.55,-278.64 903.46,-266.57 921.71,-252 943.91,-234.27 963.98,-208.77 977.42,-189.61"/>
<polygon fill="black" stroke="black" points="980.22,-191.72 982.97,-181.49 974.44,-187.77 980.22,-191.72"/>
</g>
<!-- [root] aws_security_group.my_sg (expand)&#45;&gt;[root] aws_vpc.my_vpc (expand) -->
<g id="edge18" class="edge">
<title>[root] aws_security_group.my_sg (expand)&#45;&gt;[root] aws_vpc.my_vpc (expand)</title>
<path fill="none" stroke="black" d="M1422.72,-143.7C1411.31,-135.11 1397.35,-124.61 1384.91,-115.24"/>
<polygon fill="black" stroke="black" points="1387.06,-112.47 1376.96,-109.26 1382.85,-118.07 1387.06,-112.47"/>
</g>
<!-- [root] aws_subnet.my_subnet (expand)&#45;&gt;[root] aws_vpc.my_vpc (expand) -->
<g id="edge19" class="edge">
<title>[root] aws_subnet.my_subnet (expand)&#45;&gt;[root] aws_vpc.my_vpc (expand)</title>
<path fill="none" stroke="black" d="M1066.24,-145.91C1069.44,-145.26 1072.61,-144.62 1075.71,-144 1147.23,-129.65 1229.32,-114.05 1285.46,-103.52"/>
<polygon fill="black" stroke="black" points="1286,-106.98 1295.19,-101.7 1284.71,-100.1 1286,-106.98"/>
</g>
<!-- [root] var.subnet_cidr -->
<g id="node16" class="node">
<title>[root] var.subnet_cidr</title>
<polygon fill="none" stroke="black" points="1038.33,-108 945.08,-108 945.08,-72 1044.33,-72 1044.33,-102 1038.33,-108"/>
<polyline fill="none" stroke="black" points="1038.33,-108 1038.33,-102"/>
<polyline fill="none" stroke="black" points="1044.33,-102 1038.33,-102"/>
<text text-anchor="middle" x="994.71" y="-84.95" font-family="Times,serif" font-size="14.00">var.subnet_cidr</text>
</g>
<!-- [root] aws_subnet.my_subnet (expand)&#45;&gt;[root] var.subnet_cidr -->
<g id="edge20" class="edge">
<title>[root] aws_subnet.my_subnet (expand)&#45;&gt;[root] var.subnet_cidr</title>
<path fill="none" stroke="black" d="M994.71,-143.7C994.71,-136.41 994.71,-127.73 994.71,-119.54"/>
<polygon fill="black" stroke="black" points="998.21,-119.62 994.71,-109.62 991.21,-119.62 998.21,-119.62"/>
</g>
<!-- [root] aws_vpc.my_vpc (expand)&#45;&gt;[root] provider[&quot;registry.terraform.io/hashicorp/aws&quot;] -->
<g id="edge21" class="edge">
<title>[root] aws_vpc.my_vpc (expand)&#45;&gt;[root] provider[&quot;registry.terraform.io/hashicorp/aws&quot;]</title>
<path fill="none" stroke="black" d="M1296.69,-73.38C1256.98,-62.3 1203.73,-47.45 1162.91,-36.07"/>
<polygon fill="black" stroke="black" points="1164.05,-32.75 1153.47,-33.44 1162.17,-39.5 1164.05,-32.75"/>
</g>
<!-- [root] var.vpc_cidr -->
<g id="node17" class="node">
<title>[root] var.vpc_cidr</title>
<polygon fill="none" stroke="black" points="1461.46,-36 1383.96,-36 1383.96,0 1467.46,0 1467.46,-30 1461.46,-36"/>
<polyline fill="none" stroke="black" points="1461.46,-36 1461.46,-30"/>
<polyline fill="none" stroke="black" points="1467.46,-30 1461.46,-30"/>
<text text-anchor="middle" x="1425.71" y="-12.95" font-family="Times,serif" font-size="14.00">var.vpc_cidr</text>
</g>
<!-- [root] aws_vpc.my_vpc (expand)&#45;&gt;[root] var.vpc_cidr -->
<g id="edge22" class="edge">
<title>[root] aws_vpc.my_vpc (expand)&#45;&gt;[root] var.vpc_cidr</title>
<path fill="none" stroke="black" d="M1370.75,-71.7C1379.44,-63.37 1390.02,-53.22 1399.56,-44.07"/>
<polygon fill="black" stroke="black" points="1401.73,-46.84 1406.52,-37.39 1396.88,-41.79 1401.73,-46.84"/>
</g>
<!-- [root] data.aws_ami.ubuntu (expand)&#45;&gt;[root] provider[&quot;registry.terraform.io/hashicorp/aws&quot;] -->
<g id="edge23" class="edge">
<title>[root] data.aws_ami.ubuntu (expand)&#45;&gt;[root] provider[&quot;registry.terraform.io/hashicorp/aws&quot;]</title>
<path fill="none" stroke="black" d="M1257,-143.59C1225.22,-118.09 1165.98,-70.56 1130.56,-42.15"/>
<polygon fill="black" stroke="black" points="1132.85,-39.5 1122.86,-35.97 1128.47,-44.96 1132.85,-39.5"/>
</g>
<!-- [root] output.db_address (expand) -->
<g id="node18" class="node">
<title>[root] output.db_address (expand)</title>
<ellipse fill="none" stroke="black" cx="203.71" cy="-378" rx="137.34" ry="18"/>
<text text-anchor="middle" x="203.71" y="-372.95" font-family="Times,serif" font-size="14.00">[root] output.db_address (expand)</text>
</g>
<!-- [root] output.db_address (expand)&#45;&gt;[root] aws_db_instance.default (expand) -->
<g id="edge24" class="edge">
<title>[root] output.db_address (expand)&#45;&gt;[root] aws_db_instance.default (expand)</title>
<path fill="none" stroke="black" d="M279.51,-362.58C339.45,-351.18 423.16,-335.26 485.62,-323.38"/>
<polygon fill="black" stroke="black" points="485.97,-326.87 495.14,-321.56 484.67,-319.99 485.97,-326.87"/>
</g>
<!-- [root] output.ip_publique_instance1 (expand) -->
<g id="node19" class="node">
<title>[root] output.ip_publique_instance1 (expand)</title>
<ellipse fill="none" stroke="black" cx="1527.71" cy="-306" rx="179.3" ry="18"/>
<text text-anchor="middle" x="1527.71" y="-300.95" font-family="Times,serif" font-size="14.00">[root] output.ip_publique_instance1 (expand)</text>
</g>
<!-- [root] output.ip_publique_instance1 (expand)&#45;&gt;[root] aws_instance.my_instance1 (expand) -->
<g id="edge25" class="edge">
<title>[root] output.ip_publique_instance1 (expand)&#45;&gt;[root] aws_instance.my_instance1 (expand)</title>
<path fill="none" stroke="black" d="M1476.48,-288.32C1446.57,-278.59 1408.58,-266.21 1376.71,-255.84"/>
<polygon fill="black" stroke="black" points="1378.19,-252.64 1367.6,-252.87 1376.02,-259.3 1378.19,-252.64"/>
</g>
<!-- [root] output.ip_publique_instance2 (expand) -->
<g id="node20" class="node">
<title>[root] output.ip_publique_instance2 (expand)</title>
<ellipse fill="none" stroke="black" cx="1031.71" cy="-378" rx="179.3" ry="18"/>
<text text-anchor="middle" x="1031.71" y="-372.95" font-family="Times,serif" font-size="14.00">[root] output.ip_publique_instance2 (expand)</text>
</g>
<!-- [root] output.ip_publique_instance2 (expand)&#45;&gt;[root] aws_instance.my_instance2 (expand) -->
<g id="edge26" class="edge">
<title>[root] output.ip_publique_instance2 (expand)&#45;&gt;[root] aws_instance.my_instance2 (expand)</title>
<path fill="none" stroke="black" d="M1043.35,-359.59C1059.75,-335.08 1089.78,-290.19 1108.96,-261.52"/>
<polygon fill="black" stroke="black" points="1111.76,-263.63 1114.42,-253.37 1105.95,-259.73 1111.76,-263.63"/>
</g>
<!-- [root] output.load_balancer_dns_name (expand) -->
<g id="node21" class="node">
<title>[root] output.load_balancer_dns_name (expand)</title>
<ellipse fill="none" stroke="black" cx="1418.71" cy="-378" rx="190.05" ry="18"/>
<text text-anchor="middle" x="1418.71" y="-372.95" font-family="Times,serif" font-size="14.00">[root] output.load_balancer_dns_name (expand)</text>
</g>
<!-- [root] output.load_balancer_dns_name (expand)&#45;&gt;[root] aws_elb.my_elb (expand) -->
<g id="edge27" class="edge">
<title>[root] output.load_balancer_dns_name (expand)&#45;&gt;[root] aws_elb.my_elb (expand)</title>
<path fill="none" stroke="black" d="M1358.13,-360.5C1318.25,-349.64 1266.12,-335.44 1225.59,-324.4"/>
<polygon fill="black" stroke="black" points="1226.51,-321.02 1215.94,-321.77 1224.67,-327.78 1226.51,-321.02"/>
</g>
<!-- [root] output.security_group_id (expand) -->
<g id="node22" class="node">
<title>[root] output.security_group_id (expand)</title>
<ellipse fill="none" stroke="black" cx="1827.71" cy="-378" rx="162.93" ry="18"/>
<text text-anchor="middle" x="1827.71" y="-372.95" font-family="Times,serif" font-size="14.00">[root] output.security_group_id (expand)</text>
</g>
<!-- [root] output.security_group_id (expand)&#45;&gt;[root] aws_security_group.my_sg (expand) -->
<g id="edge28" class="edge">
<title>[root] output.security_group_id (expand)&#45;&gt;[root] aws_security_group.my_sg (expand)</title>
<path fill="none" stroke="black" d="M1808.92,-359.76C1787.47,-340.64 1750.8,-309.64 1715.71,-288 1645.69,-244.83 1558.31,-207 1502.26,-184.57"/>
<polygon fill="black" stroke="black" points="1503.82,-181.43 1493.23,-180.99 1501.24,-187.93 1503.82,-181.43"/>
</g>
<!-- [root] output.subnet_id (expand) -->
<g id="node23" class="node">
<title>[root] output.subnet_id (expand)</title>
<ellipse fill="none" stroke="black" cx="131.71" cy="-306" rx="131.71" ry="18"/>
<text text-anchor="middle" x="131.71" y="-300.95" font-family="Times,serif" font-size="14.00">[root] output.subnet_id (expand)</text>
</g>
<!-- [root] output.subnet_id (expand)&#45;&gt;[root] aws_subnet.my_subnet (expand) -->
<g id="edge29" class="edge">
<title>[root] output.subnet_id (expand)&#45;&gt;[root] aws_subnet.my_subnet (expand)</title>
<path fill="none" stroke="black" d="M151.03,-287.81C176.27,-266.53 222.8,-231.25 269.71,-216 402.82,-172.72 754.59,-197.54 912.24,-179.95"/>
<polygon fill="black" stroke="black" points="912.25,-183.47 921.75,-178.79 911.4,-176.53 912.25,-183.47"/>
</g>
<!-- [root] output.vpc_id (expand) -->
<g id="node24" class="node">
<title>[root] output.vpc_id (expand)</title>
<ellipse fill="none" stroke="black" cx="1991.71" cy="-306" rx="120.96" ry="18"/>
<text text-anchor="middle" x="1991.71" y="-300.95" font-family="Times,serif" font-size="14.00">[root] output.vpc_id (expand)</text>
</g>
<!-- [root] output.vpc_id (expand)&#45;&gt;[root] aws_vpc.my_vpc (expand) -->
<g id="edge30" class="edge">
<title>[root] output.vpc_id (expand)&#45;&gt;[root] aws_vpc.my_vpc (expand)</title>
<path fill="none" stroke="black" d="M1948.81,-288.79C1868.61,-258.7 1690.23,-192.84 1537.71,-144 1498.63,-131.49 1454.48,-118.79 1419.11,-108.95"/>
<polygon fill="black" stroke="black" points="1420.46,-105.69 1409.89,-106.4 1418.59,-112.44 1420.46,-105.69"/>
</g>
<!-- [root] provider[&quot;registry.terraform.io/hashicorp/aws&quot;] (close) -->
<g id="node25" class="node">
<title>[root] provider[&quot;registry.terraform.io/hashicorp/aws&quot;] (close)</title>
<ellipse fill="none" stroke="black" cx="596.71" cy="-378" rx="238.16" ry="18"/>
<text text-anchor="middle" x="596.71" y="-372.95" font-family="Times,serif" font-size="14.00">[root] provider[&quot;registry.terraform.io/hashicorp/aws&quot;] (close)</text>
</g>
<!-- [root] provider[&quot;registry.terraform.io/hashicorp/aws&quot;] (close)&#45;&gt;[root] aws_db_instance.default (expand) -->
<g id="edge31" class="edge">
<title>[root] provider[&quot;registry.terraform.io/hashicorp/aws&quot;] (close)&#45;&gt;[root] aws_db_instance.default (expand)</title>
<path fill="none" stroke="black" d="M590.53,-359.7C587.83,-352.15 584.6,-343.12 581.59,-334.68"/>
<polygon fill="black" stroke="black" points="584.98,-333.77 578.32,-325.53 578.39,-336.12 584.98,-333.77"/>
</g>
<!-- [root] provider[&quot;registry.terraform.io/hashicorp/aws&quot;] (close)&#45;&gt;[root] aws_elb.my_elb (expand) -->
<g id="edge32" class="edge">
<title>[root] provider[&quot;registry.terraform.io/hashicorp/aws&quot;] (close)&#45;&gt;[root] aws_elb.my_elb (expand)</title>
<path fill="none" stroke="black" d="M717.22,-362.07C833.46,-347.67 1004.96,-326.42 1097.26,-314.98"/>
<polygon fill="black" stroke="black" points="1097.66,-318.46 1107.15,-313.76 1096.8,-311.51 1097.66,-318.46"/>
</g>
<!-- [root] provider[&quot;registry.terraform.io/hashicorp/aws&quot;] (close)&#45;&gt;[root] aws_route_table_association.my_rta (expand) -->
<g id="edge33" class="edge">
<title>[root] provider[&quot;registry.terraform.io/hashicorp/aws&quot;] (close)&#45;&gt;[root] aws_route_table_association.my_rta (expand)</title>
<path fill="none" stroke="black" d="M649.72,-360.05C680.09,-350.35 718.43,-338.09 750.62,-327.8"/>
<polygon fill="black" stroke="black" points="751.37,-331.24 759.83,-324.86 749.24,-324.57 751.37,-331.24"/>
</g>
<!-- [root] root -->
<g id="node26" class="node">
<title>[root] root</title>
<ellipse fill="none" stroke="black" cx="1224.71" cy="-450" rx="49.3" ry="18"/>
<text text-anchor="middle" x="1224.71" y="-444.95" font-family="Times,serif" font-size="14.00">[root] root</text>
</g>
<!-- [root] root&#45;&gt;[root] output.db_address (expand) -->
<g id="edge34" class="edge">
<title>[root] root&#45;&gt;[root] output.db_address (expand)</title>
<path fill="none" stroke="black" d="M1175.78,-446.99C1042.84,-441.32 663.89,-423.79 349.71,-396 337.52,-394.92 324.77,-393.65 312.1,-392.3"/>
<polygon fill="black" stroke="black" points="312.84,-388.86 302.52,-391.25 312.08,-395.82 312.84,-388.86"/>
</g>
<!-- [root] root&#45;&gt;[root] output.ip_publique_instance1 (expand) -->
<g id="edge35" class="edge">
<title>[root] root&#45;&gt;[root] output.ip_publique_instance1 (expand)</title>
<path fill="none" stroke="black" d="M1273.01,-446C1373.01,-439.29 1595.3,-421.63 1617.71,-396 1628.24,-383.95 1625.65,-373.89 1617.71,-360 1610.32,-347.08 1598.42,-336.99 1585.66,-329.26"/>
<polygon fill="black" stroke="black" points="1587.56,-326.31 1577.11,-324.52 1584.16,-332.43 1587.56,-326.31"/>
</g>
<!-- [root] root&#45;&gt;[root] output.ip_publique_instance2 (expand) -->
<g id="edge36" class="edge">
<title>[root] root&#45;&gt;[root] output.ip_publique_instance2 (expand)</title>
<path fill="none" stroke="black" d="M1190.65,-436.65C1162.42,-426.41 1121.72,-411.65 1088.57,-399.62"/>
<polygon fill="black" stroke="black" points="1090.11,-396.46 1079.52,-396.34 1087.73,-403.04 1090.11,-396.46"/>
</g>
<!-- [root] root&#45;&gt;[root] output.load_balancer_dns_name (expand) -->
<g id="edge37" class="edge">
<title>[root] root&#45;&gt;[root] output.load_balancer_dns_name (expand)</title>
<path fill="none" stroke="black" d="M1258.94,-436.65C1287.31,-426.41 1328.22,-411.65 1361.55,-399.62"/>
<polygon fill="black" stroke="black" points="1362.43,-403.03 1370.65,-396.34 1360.06,-396.44 1362.43,-403.03"/>
</g>
<!-- [root] root&#45;&gt;[root] output.security_group_id (expand) -->
<g id="edge38" class="edge">
<title>[root] root&#45;&gt;[root] output.security_group_id (expand)</title>
<path fill="none" stroke="black" d="M1271.02,-443.62C1363.36,-432.9 1573.01,-408.57 1707.04,-393.01"/>
<polygon fill="black" stroke="black" points="1707.13,-396.52 1716.66,-391.89 1706.32,-389.57 1707.13,-396.52"/>
</g>
<!-- [root] root&#45;&gt;[root] output.subnet_id (expand) -->
<g id="edge39" class="edge">
<title>[root] root&#45;&gt;[root] output.subnet_id (expand)</title>
<path fill="none" stroke="black" d="M1175.31,-448.64C958.11,-446.81 96.87,-436.99 57.71,-396 46.65,-384.43 50.39,-374.23 57.71,-360 63.97,-347.81 74.48,-337.8 85.64,-329.89"/>
<polygon fill="black" stroke="black" points="87.35,-332.95 93.82,-324.56 83.53,-327.08 87.35,-332.95"/>
</g>
<!-- [root] root&#45;&gt;[root] output.vpc_id (expand) -->
<g id="edge40" class="edge">
<title>[root] root&#45;&gt;[root] output.vpc_id (expand)</title>
<path fill="none" stroke="black" d="M1274.45,-449.44C1437.82,-450.35 1950.26,-448.95 1999.71,-396 2014.66,-379.98 2010.68,-354.54 2004.1,-334.95"/>
<polygon fill="black" stroke="black" points="2007.39,-333.75 2000.58,-325.63 2000.84,-336.22 2007.39,-333.75"/>
</g>
<!-- [root] root&#45;&gt;[root] provider[&quot;registry.terraform.io/hashicorp/aws&quot;] (close) -->
<g id="edge41" class="edge">
<title>[root] root&#45;&gt;[root] provider[&quot;registry.terraform.io/hashicorp/aws&quot;] (close)</title>
<path fill="none" stroke="black" d="M1178.02,-443.8C1086.13,-433.55 878.56,-410.42 738.01,-394.75"/>
<polygon fill="black" stroke="black" points="738.57,-391.29 728.24,-393.66 737.79,-398.25 738.57,-391.29"/>
</g>
</g>
</svg>
